<?xml version="1.0" standalone="no"?>
<!DOCTYPE svg PUBLIC "-//W3C//DTD SVG 1.1//EN" "http://www.w3.org/Graphics/SVG/1.1/DTD/svg11.dtd" >
<svg xmlns="http://www.w3.org/2000/svg">
<metadata>Generated by IcoMoon</metadata>
<defs>
<font id="icomoon" horiz-adv-x="1024">
<font-face units-per-em="1024" ascent="960" descent="-64" />
<missing-glyph horiz-adv-x="1024" />
<glyph unicode="&#x20;" horiz-adv-x="512" d="" />
<glyph unicode="&#xe900;" glyph-name="magnifying-glass" d="M1015.031-11.778l-248.848 248.848c66.753 76.743 107.168 176.873 107.168 286.311 0 240.901-195.945 436.619-436.619 436.619-240.901 0-436.619-195.945-436.619-436.619s195.945-436.619 436.619-436.619c109.439 0 209.568 40.415 286.311 107.168l248.848-248.848c5.903-5.903 13.85-9.082 21.57-9.082s15.667 2.952 21.57 9.082c11.807 11.807 11.807 31.333 0 43.14zM61.19 523.381c0 207.071 168.472 375.315 375.315 375.315 207.071 0 375.315-168.472 375.315-375.315s-168.245-375.542-375.315-375.542c-206.843 0-375.315 168.472-375.315 375.542z" />
<glyph unicode="&#xe901;" glyph-name="shopping-cart" d="M307.407 285.773h564.225c63.978 0 116.17 52.192 116.17 116.17v237.391c0 0.21 0 0.631 0 0.842 0 0.631 0 1.052 0 1.684 0 0.421 0 0.842-0.21 1.263 0 0.421-0.21 1.052-0.21 1.473s-0.21 0.842-0.21 1.263c-0.21 0.421-0.21 0.842-0.421 1.473-0.21 0.421-0.21 0.842-0.421 1.263s-0.21 0.842-0.421 1.263c-0.21 0.421-0.421 0.842-0.631 1.473-0.21 0.421-0.421 0.842-0.631 1.052-0.21 0.421-0.421 0.842-0.631 1.263s-0.421 0.631-0.631 1.052c-0.21 0.421-0.631 0.842-0.842 1.263s-0.421 0.631-0.842 1.052c-0.21 0.421-0.631 0.631-0.842 1.052s-0.631 0.631-0.842 1.052-0.631 0.631-0.842 0.842c-0.421 0.421-0.631 0.631-1.052 1.052-0.421 0.21-0.631 0.631-1.052 0.842s-0.842 0.631-1.263 0.842c-0.421 0.21-0.631 0.421-1.052 0.631s-0.842 0.421-1.263 0.842c-0.421 0.21-0.842 0.421-1.263 0.631s-0.842 0.421-1.263 0.631-0.842 0.421-1.263 0.631-0.842 0.21-1.263 0.421c-0.421 0.21-1.052 0.421-1.473 0.421s-0.842 0.21-1.052 0.21-1.052 0.21-1.684 0.21c-0.21 0-0.421 0.21-0.842 0.21l-715.12 98.703v99.755c0 1.052 0 2.105-0.21 2.946 0 0.21 0 0.421-0.21 0.842 0 0.631-0.21 1.263-0.21 1.894-0.21 0.631-0.21 1.052-0.421 1.684 0 0.421-0.21 0.631-0.21 1.052-0.21 0.631-0.421 1.263-0.631 1.894 0 0.21-0.21 0.631-0.21 0.842-0.21 0.631-0.421 1.052-0.842 1.684-0.21 0.21-0.21 0.631-0.421 0.842-0.21 0.421-0.421 0.842-0.842 1.263-0.21 0.421-0.421 0.631-0.631 1.052s-0.421 0.631-0.631 1.052-0.631 0.842-0.842 1.263c-0.21 0.21-0.421 0.421-0.631 0.631-0.421 0.421-0.842 0.842-1.263 1.263-0.21 0.21-0.421 0.421-0.631 0.631-0.421 0.421-0.842 0.842-1.473 1.263-0.21 0.21-0.631 0.421-0.842 0.631-0.421 0.421-0.842 0.631-1.263 1.052-0.631 0.421-1.263 0.842-1.684 1.052-0.21 0.21-0.421 0.21-0.631 0.421-0.842 0.421-1.894 0.842-2.736 1.263l-155.104 65.24c-14.521 6.103-31.147-0.631-37.25-15.153s0.631-31.147 15.153-37.25l137.636-58.085v-622.521c0-58.927 44.195-107.752 101.228-115.118-10.312-17.257-16.415-37.461-16.415-58.927 0-63.346 51.561-114.697 114.697-114.697s114.697 51.561 114.697 114.697c0 21.045-5.682 41.038-15.784 57.875h255.49c-10.102-17.047-15.784-36.829-15.784-57.875 0-63.346 51.561-114.697 114.697-114.697s114.697 51.561 114.697 114.697-51.561 114.697-114.697 114.697h-536.656c-32.831 0-59.348 26.728-59.348 59.348v77.026c17.257-10.102 37.671-15.994 59.348-15.994zM448.831 50.907c0-31.989-26.096-57.875-57.875-57.875s-57.875 26.096-57.875 57.875 26.096 57.875 57.875 57.875 57.875-25.886 57.875-57.875zM902.148 50.907c0-31.989-26.096-57.875-57.875-57.875s-57.875 26.096-57.875 57.875 26.096 57.875 57.875 57.875 57.875-25.886 57.875-57.875zM871.632 342.596h-564.225c-32.831 0-59.348 26.728-59.348 59.348v307.051l682.921-94.073v-212.768c0-33.041-26.728-59.558-59.348-59.558z" />
<glyph unicode="&#xe902;" glyph-name="down-arrow" d="M540.314-52.268c0.012 0.012 0.026 0.022 0.038 0.036l208 209.008c15.582 15.658 15.524 40.984-0.136 56.57-15.658 15.584-40.984 15.524-56.568-0.134l-139.648-140.328v847.116c0 22.092-17.908 40-40 40s-40-17.908-40-40v-847.114l-139.648 140.324c-15.584 15.658-40.91 15.718-56.568 0.134-15.662-15.586-15.716-40.914-0.136-56.57l208-209.008c0.012-0.012 0.026-0.022 0.038-0.036 15.636-15.666 41.044-15.616 56.628 0.002z" />
<glyph unicode="&#xe903;" glyph-name="booking" d="M813.426 929h-602.85c-116.112 0-210.576-94.464-210.576-210.576 0-116.674 95.446-210.576 209.32-210.576h94.58v164.988c0 73.888 60.11 134 133.996 134h0.292c73.73-0.158 133.712-60.27 133.712-134v-164.988h241.526c116.112 0 210.574 94.464 210.574 210.576s-94.462 210.576-210.574 210.576zM873.014 747.788l-120-120c-11.714-11.716-30.71-11.718-42.426 0l-60 60c-11.716 11.716-11.716 30.71 0 42.426 11.714 11.716 30.71 11.716 42.426 0l38.788-38.786 98.788 98.786c11.714 11.716 30.71 11.716 42.426 0 11.714-11.716 11.714-30.712-0.002-42.426zM705.028 423.42l-193.126 20.074v229.344c0 40.808-33.034 73.912-73.842 74-40.93 0.088-74.158-33.068-74.158-74v-383.838h-0.672l-73.046 61c-30.81 25.728-76.786 20.904-101.586-10.658-23.782-30.268-19.19-73.958 10.364-98.62l148.266-123.722h436.672v217.112c0 45.404-33.818 83.696-78.872 89.308zM363.9-3c0-16.568 13.432-30 30-30h360c16.568 0 30 13.432 30 30v60h-420z" />
<glyph unicode="&#xe904;" glyph-name="group" d="M876.182 413.359h-79.192c8.072-22.1 12.482-45.95 12.482-70.808v-299.301c0-10.364-1.804-20.312-5.086-29.564h130.922c48.906 0 88.692 39.788 88.692 88.692v163.162c0.002 81.506-66.31 147.818-147.818 147.818zM214.53 342.549c0 24.86 4.41 48.708 12.482 70.808h-79.192c-81.508 0-147.82-66.312-147.82-147.82v-163.162c0-48.904 39.786-88.692 88.692-88.692h130.924c-3.282 9.256-5.086 19.202-5.086 29.566v299.301zM602.523 490.369h-181.044c-81.508 0-147.82-66.312-147.82-147.82v-299.301c0-16.326 13.236-29.564 29.564-29.564h417.557c16.328 0 29.564 13.236 29.564 29.564v299.301c0 81.508-66.312 147.82-147.82 147.82zM512.001 882.32c-98.024 0-177.772-79.748-177.772-177.774 0-66.49 36.698-124.56 90.894-155.048 25.706-14.46 55.342-22.724 86.878-22.724s61.172 8.264 86.878 22.724c54.198 30.488 90.894 88.56 90.894 155.048 0 98.024-79.748 177.774-177.772 177.774zM199.836 716.622c-73.31 0-132.95-59.64-132.95-132.95s59.64-132.95 132.95-132.95c18.596 0 36.304 3.852 52.39 10.776 27.812 11.974 50.744 33.17 64.934 59.72 9.96 18.634 15.626 39.892 15.626 62.454 0 73.308-59.64 132.95-132.95 132.95zM824.166 716.622c-73.31 0-132.95-59.64-132.95-132.95 0-22.564 5.666-43.822 15.626-62.454 14.19-26.552 37.122-47.748 64.934-59.72 16.086-6.924 33.794-10.776 52.39-10.776 73.31 0 132.95 59.64 132.95 132.95s-59.64 132.95-132.95 132.95z" />
<glyph unicode="&#xe905;" glyph-name="tag" d="M546.268 266.224c0-18.925-15.341-34.266-34.266-34.266s-34.266 15.341-34.266 34.266c0 18.925 15.341 34.266 34.266 34.266s34.266-15.341 34.266-34.266zM546.268 629.78c0-18.925-15.341-34.266-34.266-34.266s-34.266 15.341-34.266 34.266c0 18.925 15.341 34.266 34.266 34.266s34.266-15.341 34.266-34.266zM996.396 932.37c-17.794 17.818-41.468 27.63-66.662 27.63h-358.976c-25.182 0-48.858-9.808-66.666-27.618l-476.47-476.47c-17.814-17.812-27.622-41.486-27.622-66.662 0-25.18 9.812-48.854 27.622-66.652l358.968-358.97c17.804-17.816 41.478-27.628 66.658-27.628 25.178 0 48.852 9.808 66.664 27.622l476.47 476.47c17.81 17.808 27.618 41.484 27.618 66.666v358.976c0 25.194-9.812 48.87-27.604 66.636zM512.002 724.046c51.978 0 94.266-42.288 94.266-94.266s-42.288-94.266-94.266-94.266-94.266 42.288-94.266 94.266 42.288 94.266 94.266 94.266zM512.002 171.958c-51.978 0-94.266 42.288-94.266 94.266s42.288 94.266 94.266 94.266 94.266-42.288 94.266-94.266-42.288-94.266-94.266-94.266zM704.8 418.002h-385.596c-16.568 0-30 13.432-30 30s13.432 30 30 30h385.596c16.568 0 30-13.432 30-30s-13.43-30-30-30zM833.334 739.334c-16.56 0-30 13.44-30 30s13.44 30 30 30 30-13.44 30-30-13.44-30-30-30z" />
<glyph unicode="&#xe906;" glyph-name="stones" d="M873.104 326.992c-8.332-6.78-17.182-13.208-26.556-19.256-67.896-43.822-162.748-66.986-274.298-66.986-109.924 0-226.358 21.56-319.444 59.152-45.346 18.312-80.22 38.514-106.994 59.222-10.286-4.566-20.094-9.432-29.388-14.602-75.076-41.764-116.424-102.898-116.424-172.148s41.348-130.384 116.424-172.146c75.54-42.018 184.55-64.228 315.242-64.228 134.972 0 277.434 22.638 390.854 62.112 131.808 45.874 201.48 106.132 201.48 174.262 0 58.802-51.942 111.73-150.896 154.618zM275.274 355.536c86.216-34.818 194.46-54.786 296.976-54.786 99.984 0 183.584 19.848 241.762 57.398 57.708 37.246 89.488 91.298 89.488 152.202s-31.782 114.956-89.488 152.202c-4.75 3.066-9.686 6.002-14.77 8.83-23.508-27.48-56.118-51.894-97.048-72.116-67.162-33.18-151.124-52.21-230.36-52.21-83.242 0-154.51 21.532-206.102 62.266-13.402 10.584-25.32 22.298-35.686 34.966-71.038-37.508-109.546-84.128-109.546-133.938 0-59.53 54.966-114.51 154.774-154.814zM302.914 656.41c40.894-32.29 99.306-49.356 168.92-49.356 70.328 0 144.604 16.768 203.784 46.004 69.248 34.21 107.382 80.544 107.382 130.468s-38.134 96.258-107.382 130.468c-59.18 29.238-133.456 46.006-203.784 46.006-69.614 0-128.026-17.068-168.92-49.356-39.924-31.524-61.912-76.668-61.912-127.118s21.988-95.594 61.912-127.116z" />
<glyph unicode="&#xe907;" glyph-name="giftbox" d="M957.218 760.548h-74.538c9.832 15.56 16.32 33.026 18.17 51.498 5.91 59.034-25.18 111.954-78.11 135.416-48.652 21.566-103.326 12.75-142.696-22.958l-94.12-85.3c-18.33 20.048-44.68 32.648-73.924 32.648-29.296 0-55.688-12.64-74.022-32.75l-94.24 85.412c-39.434 35.708-94.086 44.49-142.716 22.936-52.916-23.464-84.012-76.402-78.084-135.434 1.854-18.458 8.338-35.916 18.168-51.468h-74.324c-36.884 0-66.782-29.9-66.782-66.782v-100.174c0-18.44 14.95-33.392 33.392-33.392h957.218c18.44 0 33.392 14.95 33.392 33.392v100.174c-0.002 36.882-29.9 66.782-66.784 66.782zM411.826 771.678v-11.13h-157.086c-41.504 0-74.168 38.692-63.802 81.904 4.566 19.030 18.302 35.252 36.068 43.464 24.396 11.276 51.42 7.656 71.91-10.89l112.938-102.364c-0.006-0.33-0.028-0.654-0.028-0.984zM834.588 820.912c-2.488-34.706-33.838-60.368-68.632-60.368h-153.782v11.13c0 0.394-0.024 0.784-0.028 1.178 25.584 23.192 81.086 73.496 111.188 100.782 17.108 15.506 41.046 22.744 63.174 16.144 31.754-9.472 50.402-36.476 48.080-68.866zM66.782 493.418v-489.74c0-36.884 29.898-66.782 66.782-66.782h311.652v556.522h-378.434zM578.782 493.418v-556.522h311.652c36.884 0 66.782 29.898 66.782 66.782v489.74h-378.434z" />
<glyph unicode="&#xe908;" glyph-name="herbal" d="M208 366.688l-32 2.64c-0.368-4.208-8-103.552 48-164.272 26.53-27.873 63.91-45.209 105.339-45.209 2.343 0 4.672 0.055 6.988 0.165l-0.327-0.012v32c-1.816-0.103-3.94-0.161-6.079-0.161-32.26 0-61.408 13.319-82.247 34.758l-0.026 0.027c-46.384 50.272-39.776 139.168-39.648 140.064zM640 432h208v-32h-208v32zM576 432h32v-32h-32v32zM152.768 496h-40.768v-208c0.151-100.317 77.155-182.601 175.279-191.133l0.721-0.051v-96.816h448v96.816c98.845 8.583 175.849 90.867 176 191.169v208.015h-153.376l100.096 100.080c10.656 8.592 82.784 66.784 96.592 80.608 20.16 18.855 32.724 45.616 32.724 75.312s-12.564 56.457-32.666 75.258l-0.058 0.054c-18.834 20.204-45.602 32.799-75.312 32.799s-56.478-12.595-75.256-32.738l-0.056-0.061c-13.84-13.84-72.272-86.256-80.672-96.672l-234.64-234.64h-66.144c72.593 42.119 120.658 119.434 120.768 207.984v176.016c0 8.837-7.163 16-16 16v0h-32c-112.004-0.204-206.006-77.033-232.394-180.851l-0.358-1.661c-39.893 80.206-121.228 134.38-215.23 134.512h-0.018c-8.837 0-16-7.163-16-16v0-128c0.11-88.566 48.175-165.881 119.62-207.384l1.148-0.616zM704 32h-256v32h-32v-32h-32v32h-32v-32h-32v64h384zM827.312 804.688c13.164 14.159 31.895 22.989 52.688 22.989s39.524-8.83 52.647-22.944l0.041-0.044c14.313-13.088 23.256-31.844 23.256-52.688s-8.943-39.6-23.202-52.639l-0.054-0.049c-9.392-9.392-56.336-47.776-83.552-69.824l-91.648 91.648c22.048 27.216 60.432 74.16 69.824 83.552zM736 697.376l89.376-89.376-25.376-25.376-89.376 89.376zM688 649.376l89.376-89.376-57.376-57.376-89.376 89.376zM608 569.376l73.376-73.376h-146.752zM880 464v-176c-0.1-88.325-71.675-159.9-159.99-160h-416.010c-88.325 0.1-159.9 71.675-160 159.99v176.010zM288 656c0.137 114.82 93.18 207.863 207.987 208h16.013v-160c-0.137-114.82-93.18-207.863-207.987-208h-16.013v7.712c30 21.84 145.136 113.6 159.904 246.528l-31.808 3.52c-11.008-99.024-87.664-175.296-128.096-209.168v111.408zM64 815.392c107.724-8.696 191.868-98.197 192-207.379v-66.765c-50.903 38.501-89.935 90.212-112.255 150.065l-0.753 2.303-29.984-11.2c27.444-75.471 77.378-137.272 141.607-178.887l1.385-0.841v-6.080c-107.724 8.696-191.868 98.197-192 207.379v0.013zM868.693 763.311l31.995 31.995 22.627-22.627-31.995-31.995-22.627 22.627zM820.693 715.317l31.995 31.995 22.627-22.627-31.995-31.995-22.627 22.627z" />
<glyph unicode="&#xe909;" glyph-name="aromatherapy" d="M384 64h32v-32h-32v32zM320 64h32v-32h-32v32zM240 768c0.017 0.564 0.027 1.227 0.027 1.893 0 36.407-29.513 65.92-65.92 65.92s-65.92-29.513-65.92-65.92c0-36.407 29.513-65.92 65.92-65.92 4.016 0 7.948 0.359 11.766 1.047l-0.401-0.060 32.32-96.96h-9.792c-0.027 0-0.059 0-0.091 0-26.448 0-47.888-21.44-47.888-47.888 0-20.746 13.192-38.41 31.645-45.063l0.334-0.105v-42.944l-64-48v-456h352v456l-64 48v42.944c18.787 6.758 31.979 24.422 31.979 45.168 0 26.448-21.44 47.888-47.888 47.888-0.032 0-0.064 0-0.096 0h-9.147l46.912 129.040c3.227-0.572 6.943-0.9 10.735-0.9 35.62 0 64.496 28.876 64.496 64.496s-28.876 64.496-64.496 64.496c-35.62 0-64.496-28.876-64.496-64.496 0-20.429 9.498-38.639 24.318-50.456l0.13-0.1-51.648-142.080h-36.8v194.272c27.823 7.359 48 32.307 48 61.968 0 35.346-28.654 64-64 64s-64-28.654-64-64c0-29.66 20.177-54.608 47.553-61.867l0.447-0.101v-194.272h-36.464l-36.544 109.616c15.213 11.712 24.939 29.905 25.008 50.373v0.011zM448 832c17.673 0 32-14.327 32-32s-14.327-32-32-32c-17.673 0-32 14.327-32 32v0c0 17.673 14.327 32 32 32v0zM272 864c0 17.673 14.327 32 32 32s32-14.327 32-32c0-17.673-14.327-32-32-32v0c-17.673 0-32 14.327-32 32v0zM160 320h288v-192h-288zM448 0h-288v32h128v32h-128v32h288zM160 352v48h128v32h-96l32 24v56h160v-56l32-24h-64v-32h96v-48zM416 560c0-8.837-7.163-16-16-16v0h-192c-8.837 0-16 7.163-16 16s7.163 16 16 16v0h192c8.837 0 16-7.163 16-16v0zM144 768c0 17.673 14.327 32 32 32s32-14.327 32-32c0-17.673-14.327-32-32-32v0c-17.673 0-32 14.327-32 32v0zM784 315.36c-29.616 62.896-98.592 100.64-192 100.64h-16v-80c0.067-55.96 22.232-106.729 58.236-144.063l-0.060 0.063c-35.944-37.271-58.109-88.040-58.176-143.987v-80.013h16c93.408 0 162.384 37.744 192 100.64 29.616-62.896 98.592-100.64 192-100.64h16v80c-0.067 55.96-22.232 106.729-58.236 144.063l0.060-0.063c35.944 37.271 58.109 88.040 58.176 143.987v80.013h-16c-93.408 0-162.384-37.744-192-100.64zM960 336c-0.091-52.517-23.156-99.629-59.68-131.834l-0.192-0.166-13.632-12 13.632-12c36.715-32.371 59.781-79.483 59.872-131.984v-47.568c-80.096 4.544-160 44.016-160 143.552h-32c0-99.536-79.904-139.008-160-143.552v47.552c0.091 52.517 23.156 99.629 59.68 131.834l0.192 0.166 13.632 12-13.632 12c-36.715 32.371-59.781 79.483-59.872 131.984v47.568c80.096-4.544 160-44.016 160-143.552h32c0 99.536 79.904 139.008 160 143.552zM768 208h32v-32h-32v32z" />
<glyph unicode="&#xe90a;" glyph-name="fire-control" d="M128 576h32v-32h-32v32zM128 512h32v-32h-32v32zM96 544h32v-32h-32v32zM160 544h32v-32h-32v32zM848 736h32v-32h-32v32zM848 672h32v-32h-32v32zM816 704h32v-32h-32v32zM880 704h32v-32h-32v32zM176 272c-0.010-0.841-0.015-1.835-0.015-2.83 0-82.957 38.654-156.886 98.934-204.758l0.538-0.412h-99.456c-8.837 0-16-7.163-16-16v0-64c0-8.837 7.163-16 16-16v0h672c8.837 0 16 7.163 16 16v0 64c0 8.837-7.163 16-16 16v0h-99.456c60.817 48.284 99.471 122.213 99.471 205.17 0 0.995-0.006 1.989-0.017 2.981l0.001-0.151c0 92.96-48.752 190.672-124.8 256h12.8c8.837 0 16 7.163 16 16v0 192c0 8.837-7.163 16-16 16v0h-448c-8.837 0-16-7.163-16-16v0-192c0-8.837 7.163-16 16-16v0h12.8c-76.048-65.328-124.8-163.040-124.8-256zM672 64h-64v48c0 8.837-7.163 16-16 16v0h-64v33.6c36.753 7.756 63.95 39.895 64 78.395v0.005c0 39.152-56.4 108.704-67.712 122.256-3.042 3.358-7.42 5.459-12.288 5.459s-9.246-2.101-12.276-5.445l-0.012-0.014c-11.312-13.552-67.712-83.104-67.712-122.256 0.050-38.505 27.247-70.644 63.477-78.307l0.523-0.093v-33.6h-64c-8.837 0-16-7.163-16-16v0-48h-64v208c0.091 79.492 64.508 143.909 143.991 144h32.009c79.492-0.091 143.909-64.508 144-143.991v-0.009zM512 192c-26.51 0-48 21.49-48 48v0c0 17.168 25.12 56.464 48 86.4 22.896-29.872 48-69.152 48-86.4 0-26.51-21.49-48-48-48v0zM576 96v-32h-128v32zM832 0h-640v32h640zM357.776 530.48c4.502 2.882 7.444 7.858 7.444 13.52 0 8.837-7.163 16-16 16-0.007 0-0.014 0-0.021 0h-45.199v32h128v32h-128v32h192v32h-192v32h416v-32h-112v-32h112v-32h-128v-32h128v-32h-45.2c-0.006 0-0.013 0-0.020 0-8.837 0-16-7.163-16-16 0-5.662 2.941-10.638 7.38-13.482l0.064-0.038c89.584-56.88 149.776-160.736 149.776-258.48 0.009-0.738 0.014-1.611 0.014-2.484 0-83.191-44.492-155.99-110.979-195.9l-1.034-0.576v198.96c-0.118 97.155-78.845 175.882-175.989 176h-32.011c-97.155-0.118-175.882-78.845-176-175.989v-198.971c-67.521 40.486-112.014 113.285-112.014 196.476 0 0.873 0.005 1.746 0.015 2.617l-0.001-0.133c0 97.744 60.192 201.6 149.776 258.48zM464 624h32v-32h-32v32zM528 624h32v-32h-32v32zM576 784h32c-0.006 0.187-0.009 0.406-0.009 0.627 0 5.542 2.013 10.614 5.347 14.525l-0.026-0.031c6.676 8.832 10.694 19.999 10.694 32.104 0 0.273-0.002 0.546-0.006 0.818v-0.041c0.004 0.231 0.006 0.503 0.006 0.776 0 12.105-4.017 23.271-10.791 32.239l0.098-0.135c-3.308 3.88-5.321 8.951-5.321 14.493 0 0.22 0.003 0.44 0.009 0.659l-0.001-0.032c-0.005 0.181-0.008 0.394-0.008 0.608 0 5.55 2.019 10.629 5.362 14.543l-0.026-0.031c6.667 8.854 10.677 20.036 10.677 32.156 0 0.255-0.002 0.509-0.005 0.763v-0.038h-32c0.005-0.181 0.008-0.394 0.008-0.608 0-5.55-2.019-10.629-5.362-14.543l0.026 0.031c-6.667-8.854-10.677-20.036-10.677-32.156 0-0.255 0.002-0.509 0.005-0.763v0.038c-0.004-0.231-0.006-0.503-0.006-0.776 0-12.105 4.017-23.271 10.791-32.239l-0.098 0.135c3.309-4.101 5.312-9.377 5.312-15.12s-2.003-11.019-5.348-15.166l0.036 0.046c-6.676-8.832-10.694-19.999-10.694-32.104 0-0.273 0.002-0.546 0.006-0.818v0.041zM480 784h32c-0.006 0.187-0.009 0.406-0.009 0.627 0 5.542 2.013 10.614 5.347 14.525l-0.026-0.031c6.676 8.832 10.694 19.999 10.694 32.104 0 0.273-0.002 0.546-0.006 0.818v-0.041c0.004 0.231 0.006 0.503 0.006 0.776 0 12.105-4.017 23.271-10.791 32.239l0.098-0.135c-3.308 3.88-5.321 8.951-5.321 14.493 0 0.22 0.003 0.44 0.009 0.659l-0.001-0.032c-0.005 0.181-0.008 0.394-0.008 0.608 0 5.55 2.019 10.629 5.362 14.543l-0.026-0.031c6.667 8.854 10.677 20.036 10.677 32.156 0 0.255-0.002 0.509-0.005 0.763v-0.038h-32c0.005-0.181 0.008-0.394 0.008-0.608 0-5.55-2.019-10.629-5.362-14.543l0.026 0.031c-6.667-8.854-10.677-20.036-10.677-32.156 0-0.255 0.002-0.509 0.005-0.763v0.038c-0.004-0.231-0.006-0.503-0.006-0.776 0-12.105 4.017-23.271 10.791-32.239l-0.098 0.135c3.309-4.101 5.312-9.377 5.312-15.12s-2.003-11.019-5.348-15.166l0.036 0.046c-6.676-8.832-10.694-19.999-10.694-32.104 0-0.273 0.002-0.546 0.006-0.818v0.041zM384 784h32c-0.006 0.187-0.009 0.406-0.009 0.627 0 5.542 2.013 10.614 5.347 14.525l-0.026-0.031c6.676 8.832 10.694 19.999 10.694 32.104 0 0.273-0.002 0.546-0.006 0.818v-0.041c0.004 0.231 0.006 0.503 0.006 0.776 0 12.105-4.017 23.271-10.791 32.239l0.098-0.135c-3.308 3.88-5.321 8.951-5.321 14.493 0 0.22 0.003 0.44 0.009 0.659l-0.001-0.032c-0.005 0.181-0.008 0.394-0.008 0.608 0 5.55 2.019 10.629 5.362 14.543l-0.026-0.031c6.667 8.854 10.677 20.036 10.677 32.156 0 0.255-0.002 0.509-0.005 0.763v-0.038h-32c0.005-0.181 0.008-0.394 0.008-0.608 0-5.55-2.019-10.629-5.362-14.543l0.026 0.031c-6.667-8.854-10.677-20.036-10.677-32.156 0-0.255 0.002-0.509 0.005-0.763v0.038c-0.004-0.231-0.006-0.503-0.006-0.776 0-12.105 4.017-23.271 10.791-32.239l-0.098 0.135c3.309-4.101 5.312-9.377 5.312-15.12s-2.003-11.019-5.348-15.166l0.036 0.046c-6.676-8.832-10.694-19.999-10.694-32.104 0-0.273 0.002-0.546 0.006-0.818v0.041z" />
<glyph unicode="&#xe90b;" glyph-name="stones-1" d="M720 800c-0.357 21.101-7.152 40.547-18.498 56.536l0.21-0.312c-8.192 11.006-13.27 24.757-13.71 39.673l-0.002 0.103h-32c0.357-21.101 7.152-40.547 18.498-56.536l-0.21 0.312c8.192-11.006 13.27-24.757 13.71-39.673l0.002-0.103c-0.429-15.015-5.51-28.764-13.844-39.946l0.132 0.186c-11.476-16.582-18.331-37.122-18.331-59.263 0-15.686 3.441-30.568 9.609-43.932l-0.269 0.651c4.287-8.83 6.792-19.207 6.792-30.17 0-1.24-0.032-2.473-0.095-3.698l0.007 0.171h32c0.045 1.122 0.070 2.44 0.070 3.763 0 15.436-3.453 30.066-9.628 43.159l0.262-0.618c-4.271 9.011-6.765 19.578-6.765 30.727 0 16.043 5.163 30.88 13.919 42.94l-0.146-0.212c11.131 15.685 17.925 35.135 18.287 56.152l0.001 0.088zM176 592c0.056-1.053 0.088-2.286 0.088-3.526 0-10.962-2.506-21.34-6.976-30.59l0.183 0.42c-5.913-12.476-9.366-27.105-9.366-42.541 0-1.323 0.025-2.641 0.076-3.952l-0.006 0.189h32c-0.056 1.053-0.088 2.286-0.088 3.526 0 10.962 2.506 21.34 6.976 30.59l-0.183-0.42c5.899 12.714 9.339 27.596 9.339 43.281 0 22.141-6.856 42.681-18.56 59.613l0.229-0.35c-8.202 10.996-13.283 24.745-13.71 39.66l-0.002 0.1c0.442 15.019 5.52 28.77 13.846 39.964l-0.134-0.188c11.136 15.677 17.931 35.123 18.287 56.137l0.001 0.087h-32c-0.442-15.019-5.52-28.77-13.846-39.964l0.134 0.188c-11.136-15.677-17.931-35.123-18.287-56.137l-0.001-0.087c0.363-21.105 7.157-40.555 18.499-56.553l-0.211 0.313c8.202-10.996 13.283-24.745 13.71-39.66l0.002-0.1zM544 848h-32c-0.442-15.019-5.52-28.77-13.846-39.964l0.134 0.188c-11.136-15.677-17.931-35.123-18.287-56.137l-0.001-0.087c0.363-21.105 7.157-40.555 18.499-56.553l-0.211 0.313c8.609-11.849 13.773-26.686 13.773-42.729 0-11.149-2.494-21.716-6.954-31.173l0.189 0.446c-5.913-12.476-9.366-27.105-9.366-42.541 0-1.323 0.025-2.641 0.076-3.952l-0.006 0.189h32c-0.056 1.053-0.088 2.286-0.088 3.526 0 10.962 2.506 21.34 6.976 30.59l-0.183-0.42c5.899 12.714 9.339 27.596 9.339 43.281 0 22.141-6.856 42.681-18.56 59.613l0.229-0.35c-8.202 10.996-13.283 24.745-13.71 39.66l-0.002 0.1c0.442 15.019 5.52 28.77 13.846 39.964l-0.134-0.188c11.136 15.677 17.931 35.123 18.287 56.137l0.001 0.087zM322.288 839.776c8.192-11.006 13.27-24.757 13.71-39.673l0.002-0.103c-0.429-15.015-5.51-28.764-13.844-39.946l0.132 0.186c-11.476-16.582-18.331-37.122-18.331-59.263 0-15.686 3.441-30.568 9.609-43.932l-0.269 0.651c4.287-8.83 6.792-19.207 6.792-30.17 0-1.24-0.032-2.473-0.095-3.698l0.007 0.171h32c0.045 1.122 0.070 2.44 0.070 3.763 0 15.436-3.453 30.066-9.628 43.159l0.262-0.618c-4.271 9.011-6.765 19.578-6.765 30.727 0 16.043 5.163 30.88 13.919 42.94l-0.146-0.212c11.131 15.685 17.925 35.135 18.287 56.152l0.001 0.088c-0.357 21.101-7.152 40.547-18.498 56.536l0.21-0.312c-8.192 11.006-13.27 24.757-13.71 39.673l-0.002 0.103h-32c0.357-21.101 7.152-40.547 18.498-56.536l-0.21 0.312zM864 784h-32c-0.442-15.019-5.52-28.77-13.846-39.964l0.134 0.188c-11.136-15.677-17.931-35.123-18.287-56.137l-0.001-0.087c0.363-21.105 7.157-40.555 18.499-56.553l-0.211 0.313c8.609-11.849 13.773-26.686 13.773-42.729 0-11.149-2.494-21.716-6.954-31.173l0.189 0.446c-5.913-12.476-9.366-27.105-9.366-42.541 0-1.323 0.025-2.641 0.076-3.952l-0.006 0.189h32c-0.056 1.053-0.088 2.286-0.088 3.526 0 10.962 2.506 21.34 6.976 30.59l-0.183-0.42c5.899 12.714 9.339 27.596 9.339 43.281 0 22.141-6.856 42.681-18.56 59.613l0.229-0.35c-8.202 10.996-13.283 24.745-13.71 39.66l-0.002 0.1c0.442 15.019 5.52 28.77 13.846 39.964l-0.134-0.188c11.136 15.677 17.931 35.123 18.287 56.137l0.001 0.087zM576 480h32v-32h-32v32zM672 352h32v-32h-32v32zM832 224h32v-32h-32v32zM768 224h32v-32h-32v32zM976 96h-65.776c20.849 20.342 33.779 48.717 33.779 80.112 0 61.794-50.094 111.888-111.888 111.888-0.041 0-0.081 0-0.122 0h-48.41c10.187 13.14 16.353 29.844 16.416 47.985v0.015c-0.075 39.030-28.089 71.495-65.103 78.466l-0.497 0.078c10.898 13.394 17.524 30.644 17.6 49.439v0.017c-0.055 44.161-35.839 79.945-79.995 80h-128.005c-44.161-0.055-79.945-35.839-80-79.995v-0.005c0.063-18.156 6.229-34.86 16.551-48.181l-0.135 0.181h-48.416c-0.062 0-0.134 0-0.207 0-44.059 0-79.776-35.717-79.776-79.776 0-35.086 22.65-64.881 54.125-75.563l0.562-0.166c-23.763-20.581-38.707-50.798-38.707-84.506 0-31.357 12.932-59.693 33.754-79.966l0.025-0.024h-66.192c10.234 13.181 16.407 29.959 16.407 48.18 0 29.919-16.644 55.951-41.178 69.342l-0.413 0.206c15.74 14.612 25.557 35.416 25.557 58.512 0 44.050-35.71 79.76-79.76 79.76-0.069 0-0.138 0-0.208 0h-63.989c-44.161-0.055-79.945-35.839-80-79.995v-0.005c0.076-18.812 6.702-36.062 17.714-49.601l-0.114 0.145c-37.511-7.049-65.525-39.514-65.6-78.536v-0.008c0.063-18.156 6.229-34.86 16.551-48.181l-0.135 0.181h-32.416c-8.837 0-16-7.163-16-16v0-64c0-8.837 7.163-16 16-16v0h928c8.837 0 16 7.163 16 16v0 64c0 8.837-7.163 16-16 16v0zM496 464c0 26.51 21.49 48 48 48v0h128c20.695-0.089 38.29-13.259 44.95-31.666l0.106-0.334h-77.056v-32h77.056c-6.766-18.741-24.361-31.911-45.045-32h-128.011c-26.51 0-48 21.49-48 48v0zM432 288c-26.51 0-48 21.49-48 48s21.49 48 48 48v0h288c26.51 0 48-21.49 48-48s-21.49-48-48-48v0zM400 176c0.055 44.161 35.839 79.945 79.995 80h352.005c0.005 0 0.011 0 0.016 0 44.183 0 80-35.817 80-80 0-5.664-0.589-11.19-1.708-16.521l0.092 0.521h-206.4v-32h191.584c-14.632-19.453-37.644-31.922-63.571-32h-352.013c-44.161 0.055-79.945 35.839-80 79.995v0.005zM192 320h64c26.51 0 48-21.49 48-48s-21.49-48-48-48v0h-64c-26.51 0-48 21.49-48 48s21.49 48 48 48v0zM98.944 128h61.056v32h-61.056c6.766 18.741 24.361 31.911 45.045 32h128.011c26.51 0 48-21.49 48-48s-21.49-48-48-48v0h-128c-20.695 0.089-38.29 13.259-44.95 31.666l-0.106 0.334zM960 32h-896v32h896zM192 160h32v-32h-32v32z" />
<glyph unicode="&#xe90c;" glyph-name="spa" d="M832 480c-53.019 0-96-42.981-96-96s42.981-96 96-96c53.019 0 96 42.981 96 96v0c-0.055 52.997-43.003 95.945-95.995 96h-0.005zM832 320c-35.346 0-64 28.654-64 64s28.654 64 64 64c35.346 0 64-28.654 64-64v0c0-35.346-28.654-64-64-64v0zM448 736c53.019 0 96 42.981 96 96s-42.981 96-96 96c-53.019 0-96-42.981-96-96v0c0.055-52.997 43.003-95.945 95.995-96h0.005zM448 896c35.346 0 64-28.654 64-64s-28.654-64-64-64c-35.346 0-64 28.654-64 64v0c0 35.346 28.654 64 64 64v0zM976 256h-257.872l-14.128 113.088c-0.609 26.037-21.861 46.912-47.988 46.912-0.004 0-0.009 0-0.013 0l-289.599-0.080-320-32c-8.121-0.84-14.4-7.647-14.4-15.92 0 0 0 0 0 0v0-64c0-8.837 7.163-16 16-16v0h561.936l4.128-32h-566.064c-8.837 0-16-7.163-16-16v0-128c0-8.837 7.163-16 16-16v0h80v-112c0-8.837 7.163-16 16-16v0h192c8.837 0 16 7.163 16 16v0 112h320v-112c0-8.837 7.163-16 16-16v0h192c8.837 0 16 7.163 16 16v0 112h80c8.837 0 16 7.163 16 16v0 128c0 8.837-7.163 16-16 16v0zM64 320v33.6l304 30.4h288c8.837 0 16-7.163 16-16v0c0.003-0.702 0.049-1.391 0.137-2.067l-0.009 0.083 16-128c1.021-7.94 7.737-14.014 15.872-14.016h176c8.837 0 16-7.163 16-16s-7.163-16-16-16v0h-211.36c-8.308 0.006-15.134 6.343-15.915 14.447l-0.005 0.065-12.8 99.536c-1.050 7.911-7.754 13.952-15.868 13.952-0.018 0-0.036 0-0.054 0h0.003zM320 0h-32v32h-32v-32h-32v48h-32v-48h-32v96h160zM864 0h-32v48h-32v-48h-32v64h-32v-64h-32v96h160zM960 128h-896v32h256v32h-256v32h554.192l2.752-21.296c2.757-24.129 23.057-42.698 47.695-42.704h211.361c26.51 0 48 21.49 48 48v0c-0.058 5.759-1.132 11.251-3.052 16.327l0.108-0.327h34.944zM336.704 676.704l-64-208c-0.449-1.407-0.707-3.025-0.707-4.704 0-8.837 7.163-16 16-16 0.001 0 0.002 0 0.003 0h160c0.004 0 0.009 0 0.013 0 7.606 0 13.972 5.307 15.598 12.421l0.021 0.107 23.296 104.848 27.36-45.616c1.81-2.981 4.483-5.282 7.669-6.585l0.107-0.039 117.44-46.96c5.158-2.112 11.144-3.338 17.417-3.338 26.015 0 47.104 21.089 47.104 47.104 0 17.412-9.447 32.617-23.495 40.769l-0.226 0.121c-0.536 0.313-1.173 0.624-1.833 0.891l-0.103 0.037-91.168 37.040c-66.368 115.2-83.104 115.2-91.2 115.2h-128c-15.26-1.698-27.558-12.647-31.242-27.045l-0.054-0.251zM370.064 672h122.608c25.154-30.424 48.18-64.478 67.783-100.657l1.657-3.343c1.793-3.104 4.507-5.503 7.766-6.857l0.106-0.039 95.184-38.576c4.141-2.753 6.833-7.398 6.833-12.672 0-0.045 0-0.090-0.001-0.135v0.007c-0.007-8.301-6.738-15.027-15.040-15.027-2.011 0-3.931 0.395-5.684 1.111l0.1-0.036-112.416 45.024-45.248 75.376c-2.847 4.683-7.923 7.764-13.717 7.764-7.619 0-13.994-5.325-15.606-12.457l-0.020-0.107-29.168-131.376h-125.536l57.712 187.6c0.617 1.71 1.532 3.176 2.694 4.406l-0.006-0.006zM352 192h32v-32h-32v32zM416 192h160v-32h-160v32z" />
<glyph unicode="&#xe90d;" glyph-name="tick" d="M1012.464 808.984c-15.378 15.38-40.316 15.38-55.698 0l-638.421-638.423-251.11 251.112c-15.378 15.382-40.316 15.382-55.698 0-15.38-15.38-15.38-40.316 0-55.698l278.963-278.963c15.374-15.374 40.32-15.378 55.698 0l666.267 666.273c15.38 15.382 15.38 40.318 0 55.698z" />
<glyph unicode="&#xe90e;" glyph-name="lotus" d="M1020.478 334.588c-1.684 2.022-3.94 3.492-6.394 4.446-18.212 7.090-37.622 12.69-57.712 16.648-8.13 1.602-16.466-3.216-18.266-11.306-1.84-8.274 3.506-16.384 11.772-17.994 12.764-2.486 25.216-5.69 37.192-9.566-41.65-67.922-113.082-124.128-198.644-155.72-61.412-22.674-125.526-30.954-184.856-24.75 79.728 23.168 157.466 69.702 222.044 134.282 88.876 88.876 143.616 202.674 150.234 312.282 0.192 3.168-0.446 6.38-2.1 9.088-2.968 4.86-8.242 7.538-13.734 7.218-57-3.374-115.136-19.798-170.328-47.248 3.694 51.388-0.868 101.864-13.492 147.392-0.704 2.538-1.938 4.934-3.784 6.814-4.442 4.522-10.952 5.694-16.474 3.426-49.688-20.412-97.606-52.674-139.742-93.892-19.57 65.156-51.1 123.634-92.716 170.584-1.746 1.97-3.906 3.58-6.388 4.456-5.974 2.112-12.34 0.308-16.306-4.158-41.646-46.886-73.25-105.74-92.878-170.986-42.060 41.166-89.884 73.408-139.484 93.846-2.434 1.004-5.082 1.498-7.698 1.194-6.294-0.732-11.216-5.146-12.816-10.898-12.704-45.63-17.304-96.248-13.6-147.782-55.192 27.45-113.328 43.874-170.328 47.248-5.956 0.356-11.72-2.866-14.462-8.564-1.14-2.368-1.536-5.030-1.378-7.654 6.594-109.638 61.34-223.472 150.24-312.372 64.582-64.582 142.324-111.116 222.052-134.284-59.332-6.204-123.45 2.078-184.864 24.752-85.562 31.59-156.994 87.796-198.644 155.718 11.82 3.826 24.104 6.996 36.694 9.468 7.994 1.57 13.734 9.136 12.444 17.182-1.35 8.416-9.388 13.982-17.68 12.362-20.358-3.966-40.028-9.614-58.468-16.794-2.454-0.956-4.71-2.424-6.396-4.446-4.056-4.872-4.57-11.472-1.754-16.742 43.334-81.080 124.764-148.47 223.412-184.892 51.568-19.040 105.044-28.59 156.588-28.588 35.244 0.002 69.576 4.486 101.764 13.444 8.74 2.432 17.744 3.772 26.816 3.772h3.296c9.072 0 18.078-1.342 26.82-3.774 32.186-8.958 66.514-13.444 101.762-13.444 51.54 0 105.026 9.55 156.588 28.588 98.648 36.422 180.078 103.812 223.412 184.892 2.824 5.28 2.31 11.88-1.744 16.752zM272.572 674.85c45.244-21.252 88.582-53.106 126.408-92.932-9.32-40.414-14.204-82.79-14.204-125.932 0-5.156 0.078-10.32 0.216-15.482-2.726 2.842-5.484 5.66-8.278 8.454-33.818 33.82-71.25 62.68-110.682 85.842-5.554 48.446-3.31 96.4 6.54 140.050zM219.596 291.842c-79.164 79.166-129.562 178.836-140.076 275.978 97.142-10.512 196.814-60.912 275.978-140.076 79.164-79.166 129.562-178.836 140.076-275.978-97.14 10.512-196.812 60.912-275.978 140.076zM512 223.358c-17.772 63.1-50.21 125.054-94.69 180.348-1.662 17.236-2.536 34.798-2.536 52.28 0 113.2 35.254 220.496 97.23 297.43 54.698-67.804 88.544-158.552 95.778-257.65 0.604-8.262 7.788-14.472 16.052-13.868 8.262 0.604 14.472 7.792 13.868 16.052-2.1 28.77-6.348 56.892-12.588 84.066 37.804 39.78 81.108 71.598 126.314 92.834 9.85-43.65 12.092-91.604 6.54-140.050-39.432-23.164-76.864-52.024-110.682-85.842-65.536-65.54-112.48-144.632-135.286-225.6zM668.5 427.744c79.166 79.164 178.836 129.564 275.978 140.076-10.512-97.142-60.912-196.814-140.076-275.978-79.166-79.164-178.836-129.564-275.978-140.076 10.514 97.14 60.912 196.812 140.076 275.978z" />
<glyph unicode="&#xe90f;" glyph-name="massage" d="M808.926-48.054l-4.766 75.446c-1.836 28.994-12.248 56.404-30.11 79.272-5.102 6.53-14.526 7.692-21.056 2.586-6.528-5.1-7.686-14.526-2.586-21.054 14.126-18.082 22.358-39.764 23.812-62.694l3.754-59.5h-531.949l3.754 59.492c1.928 30.406 15.606 58.202 38.512 78.268 13.582 11.892 30.026 20.46 47.56 24.786l81.010 20.022c10.772 2.666 18.296 12.266 18.296 23.342v57.804c25.982-10.424 52.612-16.062 76.844-16.062 23.906 0 50.216 5.508 75.924 15.696v-57.198c0-11.092 7.516-20.698 18.284-23.364l81.962-20.244c6.958-1.71 13.818-4.116 20.39-7.15 2.036-0.942 4.174-1.386 6.28-1.386 5.668 0 11.094 3.23 13.628 8.714 3.472 7.522 0.192 16.434-7.33 19.906-8.308 3.838-16.992 6.882-25.792 9.044l-77.42 19.124v66.766c44.402 24.644 81.092 61.772 103.916 105.402 3.84 7.34 1.002 16.404-6.338 20.244-7.344 3.846-16.404 1.004-20.244-6.338-21.352-40.818-56.564-75.252-99.148-96.956-28.152-14.356-58.022-22.262-84.11-22.262-26.408 0-56.58 8.064-84.982 22.716-41.228 21.208-75.644 54.568-96.908 93.936-3.936 7.29-13.034 10.006-20.326 6.068-7.29-3.938-10.006-13.038-6.068-20.326 22.692-42.012 58.508-77.934 101.442-101.972v-67.496l-76.496-18.904c-22.162-5.464-42.958-16.3-60.134-31.344-28.96-25.368-46.25-60.504-48.688-98.942l-4.76-75.444c-0.262-4.134 1.2-8.194 4.034-11.212s6.792-4.732 10.936-4.732h563.903c4.142 0 8.1 1.712 10.936 4.732 2.836 3.022 4.296 7.080 4.034 11.214zM953.528 725.032c-8.284 0-15-6.714-15-15v-307.653c0-105.218-111.322-158.598-177.682-181.052-35.28-11.942-53.296-5.602-56.796 1.576-2.084 4.27 0.594 9.972 6.514 13.866 25.552 16.8 128.78 95.384 128.78 144.844 0 22.34-2.128 43.778-3.914 57.826-1.018 8.010-5.834 15.14-12.886 19.074-7.062 3.944-15.67 4.292-23.032 0.948l-80.096-36.398c-5.75-2.614-12.426-1.186-16.602 3.552-2.61 2.96-3.856 6.756-3.51 10.684 0.346 3.93 2.236 7.448 5.324 9.908 14.288 11.384 26.266 20.386 36.314 27.54 0.116 0.086 0.24 0.164 0.352 0.252 23.798 16.912 36.582 23.276 42.826 25.66 0.296 0.102 0.59 0.204 0.878 0.324 2.872 1.028 4.102 1.106 4.27 1.112h49.12c8.284 0 15 6.714 15 15v184.408c0 8.286-6.716 15-15 15s-15-6.714-15-15v-169.406h-23.906c4.114 17.594 7.726 40.152 6.688 62.68-1.468 31.894-12.204 56.1-31.188 70.624-1.618 52.986-15.478 95.998-41.252 127.944-18.374 22.774-42.25 39.412-71.030 49.592-9.308 48.1-47.528 90.884-97.85 108.36-43.362 15.056-132.632 23.544-243.344-88.812-5.814-5.9-5.744-15.396 0.156-21.21 5.9-5.816 15.398-5.746 21.212 0.156 99.134 100.604 175.458 94.258 212.128 81.526 10.454-3.63 19.866-8.436 28.262-14.050-9.616 0.306-19.386-0.52-28.988-2.536-30.746-6.468-60.47-23.542-90.876-52.202-6.028-5.682-6.31-15.176-0.628-21.206 2.952-3.13 6.93-4.71 10.918-4.71 3.69 0 7.388 1.354 10.286 4.084 26.274 24.764 51.29 39.378 76.472 44.676 21.642 4.544 44.11 1.182 60.894-8.954 7.356-12.922 11.698-26.232 13.012-38.18 0.49-4.34 0.616-8.594 0.372-12.66-0.326-5.562-1.326-11.204-2.998-16.918-5.26-17.976-17.178-36.69-35.63-56.012-14.886-15.59-32.328-29.844-49.722-42.442-0.004-0.004-0.008-0.008-0.014-0.012-35.498-25.74-81.020-51.7-135.306-77.162-52.318-24.562-97.826-69.774-120.572-118.534-20.936 14.2-34.030 20.628-42.486 23.542-7.994 74.166-3.332 177.174 57.658 266.565 4.668 6.842 2.906 16.174-3.936 20.844-6.844 4.67-16.176 2.906-20.844-3.938-64.54-94.592-70.98-202.19-63.288-281.053h-16.976v169.406c0 8.286-6.716 15-15 15s-15-6.714-15-15v-184.408c0-8.286 6.716-15 15-15h49.106c0.548-0.014 11.808-0.742 53.474-31.044 0.158-0.12 0.318-0.236 0.48-0.35 8.828-6.432 18.98-14.152 30.704-23.494 3.086-2.458 4.978-5.976 5.324-9.906 0.346-3.928-0.9-7.722-3.51-10.684-4.176-4.738-10.852-6.166-16.602-3.552l-80.096 36.398c-7.364 3.344-15.972 2.992-23.034-0.948-7.052-3.934-11.87-11.064-12.886-19.074-1.786-14.048-3.914-35.486-3.914-57.826 0-49.46 103.226-128.044 128.78-144.844 5.92-3.892 8.598-9.596 6.514-13.866-3.502-7.174-21.518-13.514-56.798-1.576-66.358 22.454-177.68 75.834-177.68 181.052v307.645c0 8.286-6.716 15-15 15s-15-6.714-15-15v-307.651c0-53.95 23.722-101.404 70.512-141.044 41.040-34.772 92.016-56.402 127.552-68.428 17.086-5.782 31.738-8.224 44.094-8.224 26.616 0.002 42.586 11.338 49.282 25.060 8.758 17.95 1.614 39.858-16.992 52.092-18.066 11.878-47.656 35.094-73.040 60.172-31.13 30.762-42.222 50.96-42.222 59.604 0 17.82 1.47 35.134 2.946 48.024l74.572-33.886c17.846-8.106 38.554-3.68 51.52 11.030 8.096 9.184 11.962 20.958 10.89 33.152-1.074 12.194-6.938 23.11-16.514 30.74-8.222 6.552-15.744 12.364-22.704 17.592 18.746 44.026 61.054 87 108.436 109.244 52.776 24.752 97.7 50.096 133.686 75.406 101.65-37.494 138.142-114.102 157.266-180.092-8.586-6.322-18.13-13.626-28.83-22.15-9.576-7.63-15.442-18.546-16.514-30.742-1.074-12.194 2.794-23.966 10.89-33.152 12.962-14.708 33.668-19.134 51.52-11.030l74.568 33.886c1.476-12.888 2.946-30.206 2.946-48.024 0-8.644-11.092-28.844-42.222-59.604-25.382-25.080-54.972-48.294-73.040-60.172-18.606-12.234-25.75-34.142-16.992-52.092 6.698-13.724 22.662-25.062 49.282-25.062 12.356 0 27.012 2.444 44.094 8.224 35.538 12.026 86.514 33.658 127.554 68.428 46.79 39.638 70.512 87.094 70.512 141.044v307.653c0.002 8.29-6.714 15.006-14.998 15.006zM585.455 694.013c36.148 29.49 73.492 69.726 78.76 116.040 53.864-24.422 73.546-74.994 79.090-122.546l-5.816 4.096c-6.774 4.77-16.132 3.146-20.902-3.626-4.77-6.774-3.148-16.13 3.624-20.902l31.284-22.038c0.17-0.12 0.354-0.2 0.526-0.312 0.206-0.132 0.394-0.284 0.608-0.406 30.714-17.734 27.188-73.376 14.262-118.404-6.67-3.14-15.228-7.9-26.238-15.046-19.722 63.080-58.47 140.632-155.198 183.144z" />
<glyph unicode="&#xe910;" glyph-name="customer-service" d="M863.263 313.794l-174.080-73.542c0.31 2.172 0.621 4.344 0.621 6.672 0 33.823-27.462 61.285-61.285 61.285h-125.362c-5.12 0-10.085 1.086-14.739 3.258l-106.279 48.097c-16.601 7.447-35.064 11.481-53.217 11.481h-86.575v-31.030h86.575c13.808 0 27.772-2.948 40.495-8.688l106.279-48.097c8.688-3.879 17.998-5.896 27.617-5.896h125.362c16.756 0 30.255-13.653 30.255-30.255s-13.653-30.255-30.255-30.255h-162.444v-31.030h162.288c10.705 0 20.635 2.948 29.324 7.758v-0.155l217.367 92.005c17.998 7.602 37.702 7.447 55.544-0.31 13.653-6.051 24.824-15.825 32.272-28.548l-383.69-203.559c-29.324-15.515-64.233-18.618-95.884-8.533l-187.733 60.354-53.527 0.776v-31.030h46.39l185.406-59.578c15.36-4.965 31.185-7.292 47.166-7.292 25.135 0 50.269 6.051 72.611 17.998l408.824 216.592-4.499 12.722c-9.464 26.376-29.013 47.166-54.768 58.492-25.755 11.016-54.148 11.326-80.058 0.31zM208.679 50.192v329.387c0 17.067-13.964 31.030-31.030 31.030h-156.238v-31.030h156.238v-329.542h-156.238v-31.030h156.238c17.067 0.155 31.030 14.119 31.030 31.185zM136.844 98.444c0-11.947-9.775-21.721-21.721-21.721-12.102 0-21.876 9.775-21.876 21.721 0 12.102 9.775 21.876 21.876 21.876 11.947 0 21.721-9.775 21.721-21.876zM388.499 518.904l16.756-12.412 115.433 63.922 104.417-62.836 8.999-5.275 16.756 12.102-25.135 129.396 92.315 80.058 7.447 7.137-6.516 19.239-130.638 16.136-47.476 112.33-4.344 9.309-9.93 0.155h-10.55l-55.699-119.622-121.639-10.24-10.395-1.241-6.206-19.394 96.349-89.833zM375.312 730.221l96.504 8.378 9.154 1.086 44.528 95.573 37.702-88.902 3.879-8.533 104.882-12.878-72.611-62.992-7.292-6.206 20.17-103.952-83.161 50.114-7.913 4.189-92.005-51.045 21.566 93.091 2.638 9.619zM184.475 576.155l-22.497-96.659-3.103-11.171 17.532-12.878 96.659 53.527 85.333-51.2 9.619-6.051 17.222 12.567-21.101 108.451 22.497 19.394-20.325 23.428-29.944-25.91-4.499-5.275v-6.206l14.584-77.11-62.992 38.012-3.258 3.103-13.188 0.31-3.103-3.103-64.388-35.685 17.377 75.404v9.154l-60.354 56.165 73.852 6.516 7.137 0.155 6.516 6.516 33.047 71.059 29.789-70.284 4.81-9.154h8.688l37.392-4.655 3.879 30.875-29.944 3.568-39.408 93.091-5.275 9.93-21.411-1.707-2.948-9.154-41.891-90.143-98.676-8.533-12.257-0.621-6.516-22.652 8.533-5.585zM694.458 679.021l2.793-30.875 29.944 2.793 6.982 0.31 6.516 6.516 33.047 71.059 28.393-66.87 0.31-12.567h14.584l74.007-9.154-57.561-49.959-5.12-5.43v-6.672l14.739-76.955-63.147 37.857-3.258 3.258-13.653-0.155-2.793-2.948-64.078-35.53 17.532 75.404-0.155 9.154-39.719 37.081-21.256-22.652 28.393-26.531-22.342-96.659-3.103-10.395 16.912-13.964 97.28 53.838 85.488-51.355 9.619-5.896 16.912 12.722-21.101 108.296 74.628 64.698c5.12 4.034 7.292 10.861 5.585 17.067l-3.568 11.016-108.916 13.343-39.719 93.401-4.655 8.533-18.463 0.621-4.81-7.602-43.442-92.781z" />
<glyph unicode="&#xe911;" glyph-name="alarm-clock" d="M705.687 446.653h-125.761c-6.41 24.635-25.691 43.916-50.326 50.326v178.588c0 9.738-7.889 17.609-17.609 17.609s-17.609-7.871-17.609-17.609v-178.588c-30.287-7.871-52.826-35.2-52.826-67.934 0-38.845 31.59-70.435 70.435-70.435 32.717 0 60.063 22.539 67.934 52.826h125.761c9.72 0 17.609 7.871 17.609 17.609s-7.871 17.609-17.609 17.609zM511.991 393.827c-19.422 0-35.217 15.795-35.217 35.217s15.795 35.217 35.217 35.217 35.217-15.795 35.217-35.217-15.795-35.217-35.217-35.217zM883.747 788.068l72.125-72.125c3.31-3.31 7.783-5.159 12.449-5.159s9.157 1.849 12.449 5.159c55.767 55.749 55.767 146.487 0 202.236-55.749 55.749-146.487 55.749-202.236 0-3.31-3.31-5.159-7.765-5.159-12.449s1.849-9.157 5.159-12.449l80.313-80.313-29.917-29.917c-84.17 75.436-195.263 121.43-316.922 121.43s-232.752-45.994-316.922-121.43l-29.935 29.917 80.313 80.313c3.31 3.31 5.159 7.765 5.159 12.449s-1.849 9.157-5.159 12.449c-55.749 55.749-146.487 55.749-202.236 0-55.767-55.749-55.767-146.487 0-202.236 3.31-3.31 7.783-5.159 12.449-5.159s9.157 1.849 12.449 5.159l72.125 72.125 29.512-29.512c-82.391-85.526-133.21-201.673-133.21-329.512 0-174.291 94.33-326.888 234.566-409.667l-53.319-53.319c-6.885-6.885-6.885-18.014 0-24.899 3.434-3.434 7.942-5.159 12.449-5.159s9.016 1.726 12.449 5.159l60.75 60.75c63.004-30.886 133.773-48.301 208.54-48.301s145.536 17.415 208.54 48.301l60.75-60.75c3.434-3.434 7.942-5.159 12.449-5.159s9.016 1.726 12.449 5.159c6.885 6.885 6.885 18.014 0 24.899l-53.319 53.319c140.236 82.779 234.566 235.376 234.566 409.667 0 127.839-50.819 243.986-133.21 329.512l29.53 29.512zM955.854 893.281c37.788-37.788 41.592-96.883 11.428-138.986l-150.396 150.414c42.067 30.164 101.18 26.378 138.968-11.428zM56.7 754.313c-30.164 42.085-26.36 101.18 11.428 138.968s96.901 41.574 138.968 11.428l-150.396-150.396zM511.991-11.174c-242.736 0-440.218 197.482-440.218 440.218s197.482 440.218 440.218 440.218 440.218-197.482 440.218-440.218-197.464-440.218-440.218-440.218zM862.088 632.302c-35.394 60.732-86.107 111.428-146.822 146.822-0.282 0.194-0.458 0.493-0.757 0.669-0.317 0.176-0.652 0.176-0.968 0.335-59.394 34.231-128.191 53.936-201.532 53.936s-142.138-19.687-201.532-53.936c-0.317-0.158-0.669-0.141-0.968-0.335-0.299-0.176-0.458-0.475-0.757-0.669-60.732-35.394-111.428-86.089-146.822-146.822-0.194-0.299-0.493-0.458-0.669-0.757s-0.176-0.652-0.317-0.968c-34.231-59.412-53.936-128.191-53.936-201.532s19.704-142.138 53.936-201.532c0.158-0.317 0.141-0.652 0.317-0.968 0.247-0.44 0.616-0.757 0.898-1.162 35.394-60.539 86.001-111.093 146.593-146.417 0.282-0.194 0.458-0.493 0.757-0.669 0.458-0.264 0.951-0.37 1.409-0.581 59.306-34.073 127.927-53.671 201.092-53.671s141.785 19.599 201.092 53.671c0.458 0.211 0.951 0.317 1.409 0.581 0.299 0.176 0.458 0.475 0.757 0.669 60.592 35.323 111.199 85.86 146.593 146.417 0.282 0.405 0.652 0.722 0.898 1.162 0.176 0.299 0.176 0.652 0.317 0.968 34.231 59.412 53.936 128.191 53.936 201.532s-19.704 142.138-53.936 201.532c-0.158 0.317-0.141 0.652-0.317 0.968-0.194 0.299-0.493 0.475-0.669 0.757zM711.727 118.321l-8.399 14.545c-4.878 8.417-15.637 11.322-24.054 6.445-8.417-4.86-11.305-15.637-6.445-24.054l8.435-14.598c-45.836-23.719-97.2-37.912-151.646-40.5v16.711c0 9.738-7.889 17.609-17.609 17.609s-17.609-7.871-17.609-17.609v-16.711c-54.446 2.571-105.811 16.781-151.646 40.5l8.435 14.598c4.86 8.435 1.972 19.194-6.445 24.054-8.47 4.86-19.194 1.955-24.054-6.445l-8.399-14.545c-44.462 28.667-82.321 66.543-110.988 110.988l14.545 8.399c8.417 4.86 11.305 15.637 6.445 24.054-4.878 8.417-15.619 11.358-24.054 6.445l-14.598-8.435c-23.719 45.836-37.912 97.218-40.5 151.646h16.711c9.72 0 17.609 7.871 17.609 17.609s-7.889 17.609-17.609 17.609h-16.746c2.588 54.446 16.781 105.828 40.5 151.646l14.598-8.435c2.782-1.602 5.811-2.36 8.787-2.36 6.093 0 12.009 3.17 15.267 8.804 4.86 8.435 1.972 19.194-6.445 24.054l-14.545 8.435c28.667 44.444 66.543 82.321 110.988 110.988l8.399-14.545c3.275-5.635 9.174-8.804 15.267-8.804 2.976 0 6.005 0.757 8.787 2.36 8.417 4.86 11.305 15.637 6.445 24.054l-8.435 14.598c45.836 23.719 97.2 37.912 151.646 40.5v-16.711c0-9.738 7.889-17.609 17.609-17.609s17.609 7.871 17.609 17.609v16.711c54.446-2.571 105.811-16.781 151.646-40.5l-8.435-14.598c-4.86-8.435-1.972-19.194 6.445-24.054 2.782-1.602 5.811-2.36 8.787-2.36 6.093 0 12.009 3.17 15.267 8.804l8.399 14.545c44.462-28.667 82.321-66.543 110.988-110.988l-14.545-8.399c-8.417-4.86-11.305-15.637-6.445-24.054 3.275-5.635 9.174-8.804 15.267-8.804 2.976 0 6.005 0.757 8.787 2.36l14.598 8.435c23.719-45.836 37.912-97.218 40.5-151.646h-16.711c-9.72 0-17.609-7.871-17.609-17.609s7.889-17.609 17.609-17.609h16.711c-2.588-54.446-16.781-105.828-40.5-151.646l-14.598 8.435c-8.452 4.895-19.194 1.955-24.054-6.445-4.86-8.435-1.972-19.194 6.445-24.054l14.545-8.399c-28.632-44.48-66.491-82.338-110.953-111.023z" />
<glyph unicode="&#xe912;" glyph-name="face-mask" d="M512 928c-265.097 0-480-214.903-480-480s214.903-480 480-480c265.097 0 480 214.903 480 480v0c-0.309 264.972-215.027 479.69-479.97 480h-0.030zM839.68 142.944l-44.368 44.368-22.624-22.624 44.368-44.368c-79.638-74.541-187.001-120.318-305.056-120.318s-225.418 45.778-305.306 120.55l0.25-0.232 44.368 44.368-22.624 22.624-44.368-44.368c-74.541 79.638-120.318 187.001-120.318 305.056s45.778 225.418 120.55 305.306l-0.232-0.25 44.368-44.368 22.624 22.624-44.368 44.368c79.638 74.541 187.001 120.318 305.056 120.318s225.418-45.778 305.306-120.55l-0.25 0.232-44.368-44.368 22.624-22.624 44.368 44.368c74.541-79.638 120.318-187.001 120.318-305.056s-45.778-225.418-120.55-305.306l0.232 0.25zM720 688h-96c-44.183 0-80-35.817-80-80s35.817-80 80-80v0h96c44.183 0 80 35.817 80 80s-35.817 80-80 80v0zM720 560h-96c-26.51 0-48 21.49-48 48s21.49 48 48 48v0h96c26.51 0 48-21.49 48-48s-21.49-48-48-48v0zM400 528c44.183 0 80 35.817 80 80s-35.817 80-80 80v0h-96c-44.183 0-80-35.817-80-80s35.817-80 80-80v0zM256 608c0 26.51 21.49 48 48 48v0h96c26.51 0 48-21.49 48-48s-21.49-48-48-48v0h-96c-26.51 0-48 21.49-48 48v0zM736 272c0 45.456-64.896 64-224 64s-224-18.544-224-64c0-50.416 103.36-112 224-112s224 61.584 224 112zM320 272c0 3.2 5.392 32 192 32s192-28.8 192-32c0-23.856-81.072-80-192-80s-192 56.144-192 80zM512 64v-32c86.241 0.858 166.539 25.56 234.832 67.812l-1.952-1.124-17.76 26.624c-61.411-37.542-135.507-60.198-214.812-61.309l-0.308-0.003zM512 832v32c-86.241-0.858-166.539-25.56-234.832-67.812l1.952 1.124 17.76-26.624c61.411 37.542 135.507 60.198 214.812 61.309l0.308 0.003zM834.688 232.864l26.624-17.744c2.688 4.080 66.688 101.184 66.688 200.88h-32c0-89.856-60.704-182.208-61.312-183.136zM96 416c0-99.696 64-196.8 66.688-200.88l26.624 17.76c-0.608 0.912-61.312 93.008-61.312 183.12zM896 480h32v-32h-32v32zM272 496h112v-32h-112v32zM640 496h112v-32h-112v32zM647.152 846.32c-20.758 10.359-45.103 16.788-70.856 17.672l-0.296 0.008v-32c20.855-0.913 40.292-6.099 57.745-14.698l-0.849 0.378zM448 424.56v39.44h-32v-56.56l59.152-39.44h73.696l59.152 39.44v56.56h-32v-39.44l-36.848-24.56h-54.304l-36.848 24.56z" />
<glyph unicode="&#xe913;" glyph-name="relax" d="M400 608h32v-64h-32zM368 544h-32c0-44.183 35.817-80 80-80s80 35.817 80 80v0h-32c0-26.51-21.49-48-48-48s-48 21.49-48 48v0zM240 432v-16c0-8.837 7.163-16 16-16v0h288c8.837 0 16 7.163 16 16v0 16h48c44.161 0.055 79.945 35.839 80 79.995v0.005c0 8.837-7.163 16-16 16v0h-32c-8.837 0-16 7.163-16 16v0 160c0 123.712-100.288 224-224 224s-224-100.288-224-224v0-160c0-8.837-7.163-16-16-16v0h-32c-8.837 0-16-7.163-16-16v0c0.055-44.161 35.839-79.945 79.995-80h0.005zM528 640v-208h-256v272h96c8.837 0 16 7.163 16 16v0c-0.165 2.060-0.259 4.461-0.259 6.883 0 19.467 6.084 37.513 16.455 52.34l-0.196-0.295c10.18-14.494 16.269-32.505 16.269-51.938 0-2.46-0.098-4.897-0.289-7.308l0.020 0.318c0-8.837 7.163-16 16-16v0h96zM640 496h13.264c-6.813-18.788-24.495-31.974-45.261-32h-48.003v71.008c12.255 2.655 23.017 7.806 32.18 14.919l-0.18-0.135v-5.792c0-26.51 21.49-48 48-48v0zM560 568.128v90.528c18.816-6.781 32.026-24.48 32.026-45.264s-13.21-38.483-31.692-45.159l-0.334-0.105zM208 704c0 106.039 85.961 192 192 192s192-85.961 192-192v0-27.024c-8.98 6.989-19.743 12.146-31.476 14.704l-0.524 0.096v28.224c0 8.837-7.163 16-16 16v0h-96.64c-4.928 58.912-36.368 76.384-40.208 78.32-2.084 1.064-4.545 1.687-7.152 1.687s-5.068-0.623-7.243-1.729l0.091 0.042c-3.856-1.936-35.28-19.408-40.208-78.32h-96.64c-8.837 0-16-7.163-16-16v0-28.224c-12.257-2.654-23.020-7.811-32.179-14.934l0.179 0.134zM240 658.656v-90.528c-18.816 6.781-32.026 24.48-32.026 45.264s13.21 38.483 31.692 45.159l0.334 0.105zM146.736 496h13.264c26.51 0 48 21.49 48 48v0 5.792c8.983-6.978 19.745-12.129 31.475-14.688l0.525-0.096v-71.008h-48c-20.769 0.026-38.451 13.212-45.158 31.665l-0.106 0.335zM384 224h32v-32h-32zM384 160h32v-32h-32zM400 640h-32c0-8.837-7.163-16-16-16s-16 7.163-16 16v0h-32c0-26.51 21.49-48 48-48s48 21.49 48 48v0zM480 624c-8.837 0-16 7.163-16 16v0h-32c0-26.51 21.49-48 48-48s48 21.49 48 48v0h-32c0-8.837-7.163-16-16-16v0zM704 224h-64v80c0 35.346-28.654 64-64 64v0h-352c-35.346 0-64-28.654-64-64v0-272c0-35.346 28.654-64 64-64v0h448c26.51 0 48 21.49 48 48v0 192c0 8.837-7.163 16-16 16v0zM624 96v-32h-32v32zM544 336h32c17.673 0 32-14.327 32-32v0-80h-64zM448 336c0-26.51-21.49-48-48-48s-48 21.49-48 48v0zM288 336h32c0-44.183 35.817-80 80-80s80 35.817 80 80v0h32v-112h-16c-8.837 0-16-7.163-16-16v0-112h-192zM192 304c0 17.673 14.327 32 32 32v0h32v-144h-64zM551.2 9.968c-5.804-6.144-14.008-9.968-23.104-9.968-0.034 0-0.067 0-0.101 0h-303.995c-17.673 0-32 14.327-32 32v0 128h64v-80c0-8.837 7.163-16 16-16v0h253.28c0.301 0.010 0.656 0.015 1.011 0.015 17.445 0 31.813-13.175 33.695-30.118l0.014-0.153c0.031-0.528 0.049-1.146 0.049-1.768 0-8.547-3.373-16.306-8.859-22.019l0.010 0.011zM560 112v-25.44c-9.941 5.922-21.92 9.428-34.717 9.44h-13.283v96h80v-64h-16c-8.837 0-16-7.163-16-16v0zM688 16c0-8.837-7.163-16-16-16v0h-88.72c5.332 9.069 8.481 19.977 8.481 31.62 0 0.134 0 0.267-0.001 0.401v-0.021h48.24c8.837 0 16 7.163 16 16v0 64c0 8.837-7.163 16-16 16v0h-16v64h64zM816 352c0-8.837-7.163-16-16-16v0h-80c-26.51 0-48-21.49-48-48v0-32h32v32c0 8.837 7.163 16 16 16v0h80c26.51 0 48 21.49 48 48v0 48h-32zM832 656h-176v-32h176c26.51 0 48 21.49 48 48s-21.49 48-48 48v0h-32v-32h32c8.837 0 16-7.163 16-16s-7.163-16-16-16v0zM848 592h-160v-32h160c17.673 0 32-14.327 32-32s-14.327-32-32-32c-17.673 0-32 14.327-32 32v0h-32c0-35.346 28.654-64 64-64s64 28.654 64 64c0 35.346-28.654 64-64 64v0z" />
<glyph unicode="&#xe914;" glyph-name="facebook-app-symbol" d="M591.302-64v467.060h156.71l23.511 182.076h-180.221v116.229c0 52.699 14.574 88.612 90.229 88.612l96.335 0.040v162.855c-16.66 2.165-73.847 7.129-140.407 7.129-138.987 0-234.141-84.837-234.141-240.603v-134.261h-157.185v-182.076h157.185v-467.060h187.983z" />
<glyph unicode="&#xe915;" glyph-name="twitter" d="M920.576 701.952c-30.72-13.312-62.464-22.528-96.256-26.624 34.816 20.48 61.44 53.248 73.728 93.184-32.768-19.456-68.608-32.768-106.496-40.96-30.72 32.768-74.752 53.248-122.88 53.248-93.184 0-167.936-75.776-167.936-167.936 0-13.312 1.024-25.6 4.096-37.888-139.264 6.144-262.144 73.728-345.088 175.104-59.392-106.496 7.168-194.56 51.2-224.256-26.624 0-53.248 8.192-75.776 20.48 0-82.944 58.368-151.552 134.144-166.912-16.384-5.12-53.248-8.192-75.776-3.072 21.504-66.56 83.968-115.712 156.672-116.736-57.344-45.056-141.312-80.896-248.832-69.632 74.752-48.128 162.816-75.776 258.048-75.776 309.248 0 477.184 256 477.184 477.184 0 7.168 0 14.336-1.024 21.504 34.816 25.6 63.488 55.296 84.992 89.088z" />
<glyph unicode="&#xe916;" glyph-name="instagram" d="M746.811 960h-469.624c-152.843 0-277.187-124.344-277.187-277.187v-469.632c0-152.836 124.344-277.179 277.187-277.179h469.632c152.836 0 277.179 124.344 277.179 277.179v469.632c0 152.843-124.344 277.187-277.187 277.187zM963.967 213.181c0-119.734-97.414-217.148-217.156-217.148h-469.624c-119.742 0-217.156 97.414-217.156 217.148v469.632c0 119.742 97.414 217.156 217.156 217.156h469.632c119.734 0 217.148-97.414 217.148-217.156zM511.999 727.993c-154.39 0-279.992-125.601-279.992-279.992s125.601-279.992 279.992-279.992 279.992 125.601 279.992 279.992-125.601 279.992-279.992 279.992zM511.999 228.040c-121.281 0-219.961 98.672-219.961 219.961 0 121.281 98.68 219.961 219.961 219.961 121.289 0 219.961-98.68 219.961-219.961 0-121.289-98.672-219.961-219.961-219.961zM798.686 827.43c-45.625 0-82.734-37.117-82.734-82.734 0-45.625 37.109-82.742 82.734-82.742s82.742 37.117 82.742 82.742-37.117 82.734-82.742 82.734zM798.686 721.993c-12.516 0-22.703 10.187-22.703 22.703 0 12.523 10.187 22.703 22.703 22.703 12.523 0 22.711-10.18 22.711-22.703 0-12.516-10.187-22.703-22.711-22.703z" />
<glyph unicode="&#xe917;" glyph-name="linkedin" d="M138.24 951.466c-37.546 0-71.68-13.654-97.28-39.254-27.306-27.306-40.96-61.438-40.96-97.278 0-37.546 15.36-71.68 40.96-97.28s61.44-40.96 95.574-39.254c0 0 1.706 0 3.414 0 34.134 0 66.56 13.654 92.16 39.254s40.96 59.734 40.96 97.28c1.706 35.84-13.654 69.974-39.254 95.574-25.6 27.306-59.734 40.958-95.574 40.958zM208.214 741.546c-18.774-18.774-44.374-30.72-71.68-29.014-25.6 0-52.906 10.24-71.68 29.014-20.48 18.774-30.72 46.080-30.72 73.386s10.24 52.906 30.72 73.386c18.774 18.774 44.374 29.014 73.386 29.014 25.6 0 51.2-10.24 69.974-29.014 20.48-20.48 30.72-46.080 30.72-73.386s-10.24-54.612-30.72-73.386zM204.8 644.266h-138.24c-27.306 0-49.494-22.186-49.494-51.2v-597.334c0-27.306 23.894-51.2 51.2-51.2h136.534c27.306 0 51.2 23.894 51.2 49.494v599.040c0 27.308-23.894 51.2-51.2 51.2zM221.866-5.974c0-8.534-8.534-15.36-17.066-15.36h-136.534c-8.534 0-17.066 8.534-17.066 17.066v597.334c0 8.534 6.826 17.066 15.36 17.066h138.24c8.534 0 17.066-8.534 17.066-17.066v-599.040zM785.066 661.334h-35.84c-66.56 0-129.706-29.014-170.666-75.094v23.894c0 17.066-17.066 34.134-34.134 34.134h-170.666c-15.36 0-34.134-13.654-34.134-32.426v-636.586c0-18.774 18.774-30.72 34.134-30.72h187.734c15.36 0 34.134 11.946 34.134 30.72v368.64c0 56.32 40.96 100.694 93.866 100.694 27.306 0 52.906-10.24 71.68-29.014 17.066-15.36 23.894-39.254 23.894-69.974v-366.934c0-17.066 17.066-34.134 34.134-34.134h170.666c17.066 0 34.134 17.066 34.134 34.134v440.32c-0.002 136.532-104.108 242.346-238.936 242.346zM989.866-19.626l-1.706-1.706h-167.254l-1.706 366.932c0 40.96-10.24 71.68-32.426 93.866-25.6 25.6-59.734 39.254-95.574 39.254-71.68-1.706-128-59.734-128-134.826v-365.226h-187.734v631.466h168.96l1.706-1.706v-107.52l47.786 47.786c34.134 47.786 93.866 78.506 157.014 78.506h35.84c114.346 0 203.094-92.16 203.094-208.214v-438.612z" />
<glyph unicode="&#xe918;" glyph-name="pinterest" d="M900.465 705.026c-15.521 52.424-40.436 96.557-76.216 134.91-34.984 37.516-75.236 65.964-123.065 86.979-54.487 23.874-117.653 35.474-178.002 32.676-22.015-1.001-43.52-2.165-64.596-5.208-59.388-8.496-111.69-26.202-159.867-54.119-61.492-35.698-109.505-84.222-142.691-144.264-17.237-31.246-34.208-86.346-41.417-122.33-8.537-42.438-1.021-116.020 16.113-157.518 21.403-51.73 39.007-74.664 81.955-106.666 0.265-0.184 26.815-19.299 44.5-19.013 32.206 0.613 38.619 31.43 41.682 46.236 0.572 2.798 1.144 5.555 1.818 8.149 0.592 2.287 1.368 4.738 2.165 7.291 4.554 14.704 10.742 34.841 0.47 52.69-3.86 6.699-8.434 11.906-12.458 16.481-2.185 2.492-4.391 4.901-6.168 7.556-15.276 22.689-23.016 51.076-23.016 84.365 0 43.684 9.884 83.262 30.246 120.962 36.924 68.395 98.191 111.547 177.205 124.863 44.97 7.536 97.374 4.37 136.687-8.21 35.923-11.518 66.495-31.879 88.429-58.939 23.22-28.632 36.495-64.943 39.436-107.953 1.92-27.448-0.572-55.1-2.634-73.459-7.944-70.682-28.51-127.579-61.145-169.138-26.733-34.105-55.549-51.199-88.123-52.302-20.974-0.817-36.658 3.472-50.831 13.622-13.377 9.537-21.341 21.301-25.099 36.965-4.248 17.89 0.878 36.434 6.331 56.080l0.878 3.145c4.758 17.277 9.741 33.064 14.622 48.605 7.679 24.486 15.644 49.79 22.199 79.157 7.413 33.146 8.394 59.919 3.023 81.792-6.617 27.162-21.219 47.503-43.398 60.491-23.465 13.683-56.713 16.318-84.63 6.719-41.6-14.194-73.337-51.975-87.081-103.644-6.964-26.243-8.986-53.793-5.984-81.812 2.308-21.975 7.23-41.948 16.318-66.066-0.306-1.042-0.633-2.144-0.96-3.206-0.654-2.144-1.246-4.227-1.695-6.004-9.782-40.845-19.299-81.118-28.796-121.309-9.006-38.169-18.033-76.278-27.243-114.774l-2.083-8.618c-9.435-39.211-19.156-79.77-21.423-128.191l-1.021-20.218c-2.001-37.618-4.023-76.523 1.021-112.507 1.001-7.025 3.206-22.771 18.707-28.265 4.636-3.472 9.088-4.942 13.418-4.942 12.968 0 24.507 13.172 34.33 24.344 32.043 36.434 59.286 82.445 83.303 140.608 10.742 26.018 17.87 54.017 24.752 81.097l4.146 16.134c5.024 19.279 9.946 38.823 14.827 58.163l0.327 1.287c9.047-7.924 19.503-15.072 31.614-21.709 25.63-14.194 54.548-22.465 85.917-24.568 29.408-2.001 60.369 1.777 94.535 11.58 25.957 7.393 50.791 18.646 73.868 33.411 82.792 53.017 139.22 145.755 158.907 261.121 5.902 34.473 8.414 62.186 8.414 92.656-0.041 35.086-4.227 67.026-12.519 94.821zM864.276 524.349c-17.747-103.909-67.7-186.865-140.69-233.592-19.728-12.641-40.947-22.22-63.105-28.551-29.531-8.496-55.917-11.784-80.505-10.109-25.753 1.736-48.279 8.128-69.007 19.606-20.729 11.334-34.167 23.649-43.602 39.926l-25.038 43.255-22.567-88.572c-4.84-19.217-9.741-38.66-14.745-57.836l-4.187-16.379c-6.842-26.855-13.275-52.241-22.934-75.563-21.505-52.118-45.522-93.351-73.296-125.863-2.165 27.672-0.531 58.714 1.062 88.878l1.042 20.463c2.063 44.562 11.355 83.18 20.32 120.533l2.104 8.68c9.211 38.517 18.237 76.686 27.264 114.876 9.496 40.171 18.993 80.403 28.755 121.146 0.286 1.144 0.694 2.492 1.123 3.901 2.451 8.23 5.003 16.746 1.552 25.385-8.761 22.444-13.377 40.355-15.439 59.879-2.451 23.077-0.837 45.624 4.861 67.026 10.17 38.251 32.329 65.76 60.838 75.481 7.066 2.43 14.459 3.451 21.566 3.451 11.58 0 22.322-2.777 29.224-6.801 12.396-7.27 20.361-18.666 24.303-34.922 3.778-15.439 2.716-36.699-3.186-63.187-6.208-27.672-13.54-51.056-21.321-75.828-5.024-15.97-10.109-32.186-15.010-49.953l-0.858-3.104c-6.29-22.648-13.397-48.319-6.699-76.461 6.086-25.487 19.524-45.338 41.069-60.736 21.403-15.296 46.522-22.138 75.971-21.219 44.745 1.511 84.733 24.364 118.879 67.905 37.393 47.625 60.818 111.466 69.62 189.826 2.206 19.973 4.922 50.076 2.798 80.811-3.553 51.546-19.851 95.577-48.462 130.867-26.937 33.227-64.188 58.163-107.687 72.112-45.154 14.479-104.91 18.196-155.925 9.619-91.901-15.48-163.257-65.862-206.389-145.734-23.649-43.826-35.147-89.736-35.147-140.363 0-41.58 10.068-77.626 29.96-107.156 2.737-4.084 6.004-7.883 9.394-11.722 3.043-3.472 5.922-6.739 7.679-9.782 1.246-3.329-2.308-14.847-4.023-20.382-0.96-3.125-1.879-6.127-2.614-8.925-0.858-3.268-1.593-6.76-2.328-10.272-0.796-3.839-2.022-9.782-3.308-13.050-4.84 1.899-13.683 6.76-18.462 10.293-36.699 27.325-50.157 44.909-68.578 89.491-13.826 33.513-20.688 99.825-13.826 133.889 7.658 38.169 23.976 86.754 37.128 110.628 29.551 53.486 72.418 96.782 127.415 128.682 43.561 25.242 91.023 41.294 145.183 49.034 19.258 2.798 39.681 3.88 60.675 4.84 54.119 2.553 110.873-7.863 159.683-29.265 42.642-18.727 78.504-44.051 109.607-77.442 31.369-33.615 53.241-72.418 66.924-118.654 7.168-24.037 10.783-52.077 10.783-83.283-0.020-28.040-2.369-53.691-7.842-85.774z" />
<glyph unicode="&#xe919;" glyph-name="up-arrow" d="M483.686 948.268c-0.012-0.012-0.026-0.022-0.038-0.036l-208-209.008c-15.582-15.658-15.524-40.984 0.136-56.57 15.658-15.584 40.984-15.524 56.568 0.134l139.648 140.328v-847.116c0-22.092 17.908-40 40-40s40 17.908 40 40v847.114l139.648-140.324c15.584-15.658 40.91-15.718 56.568-0.134 15.662 15.586 15.716 40.914 0.136 56.57l-208 209.008c-0.012 0.012-0.026 0.022-0.038 0.036-15.636 15.666-41.044 15.616-56.628-0.002z" />
<glyph unicode="&#xe91a;" glyph-name="left-arrow" d="M11.732 419.686c0.012-0.012 0.022-0.026 0.036-0.038l209.008-208c15.658-15.582 40.984-15.524 56.57 0.136 15.584 15.658 15.524 40.984-0.134 56.568l-140.328 139.648h847.116c22.092 0 40 17.908 40 40s-17.908 40-40 40h-847.114l140.324 139.648c15.658 15.584 15.718 40.91 0.134 56.568-15.586 15.662-40.914 15.716-56.57 0.136l-209.008-208c-0.012-0.012-0.022-0.026-0.036-0.038-15.666-15.636-15.616-41.044 0.002-56.628z" />
<glyph unicode="&#xe91b;" glyph-name="right-arrow" d="M1012.268 476.314c-0.012 0.012-0.022 0.026-0.036 0.038l-209.008 208c-15.658 15.582-40.984 15.524-56.57-0.136-15.584-15.658-15.524-40.984 0.134-56.568l140.328-139.648h-847.116c-22.092 0-40-17.908-40-40s17.908-40 40-40h847.114l-140.324-139.648c-15.658-15.584-15.718-40.91-0.134-56.568 15.586-15.662 40.914-15.716 56.57-0.136l209.008 208c0.012 0.012 0.022 0.026 0.036 0.038 15.666 15.636 15.616 41.044-0.002 56.628z" />
<glyph unicode="&#xe91c;" glyph-name="minus1" d="M0 512.001h1024v-128.001h-1024v128.001z" />
<glyph unicode="&#xe91d;" glyph-name="28-plus" d="M575.888 511.888v448.112h-127.775v-448.112h-448.112v-127.775h448.112v-448.112h127.775v448.112h448.112v127.775z" />
<glyph unicode="&#xe91e;" glyph-name="close" d="M605.824 447.168l398.72 398.752c25.952 25.952 25.952 67.872 0 93.824s-67.872 25.92-93.792 0l-398.752-398.752-398.72 398.752c-25.952 25.92-67.872 25.92-93.824 0s-25.952-67.872 0-93.824l398.72-398.752-398.72-398.752c-25.952-25.952-25.952-67.872 0-93.792 12.928-12.928 29.92-19.424 46.912-19.424s33.952 6.496 46.912 19.424l398.72 398.752 398.752-398.752c12.928-12.928 29.92-19.424 46.912-19.424s33.952 6.496 46.912 19.424c25.952 25.952 25.952 67.872 0 93.792z" />
<glyph unicode="&#xe91f;" glyph-name="bamboo" d="M704 768h-128c-26.51 0-48-21.49-48-48v0-704c0-26.51 21.49-48 48-48v0h128c26.51 0 48 21.49 48 48v0 107.12c32.178-45.624 84.645-75.073 143.992-75.12h80.008v16c-0.11 70.691-41.853 131.606-102.017 159.547l-1.087 0.453c61.251 28.394 102.994 89.309 103.104 159.986v16.014h-80c-59.368-0.067-111.837-29.545-143.628-74.644l-0.372-0.556v395.2c0 26.51-21.49 48-48 48v0zM720 272h-160v208h160zM576 736h128c8.837 0 16-7.163 16-16v0-208h-160v208c0 8.837 7.163 16 16 16v0zM720 16c0-8.837-7.163-16-16-16v0h-128c-8.837 0-16 7.163-16 16v0 224h160zM943.104 80h-47.104c-73.856 0.093-134.696 55.698-143.040 127.327l-0.064 0.673h47.104c73.856-0.093 134.696-55.698 143.040-127.327l0.064-0.673zM896 368h47.104c-8.408-72.302-69.248-127.907-143.094-128h-47.114c8.408 72.302 69.248 127.907 143.094 128h0.010zM48 272v-16h80c59.355 0.047 111.822 29.496 143.629 74.566l0.371 0.554v-315.12c0-26.51 21.49-48 48-48v0h128c26.51 0 48 21.49 48 48v0 864c0 26.51-21.49 48-48 48v0h-128c-26.51 0-48-21.49-48-48v0-347.2c-32.163 45.655-84.632 75.133-143.989 75.2h-80.011v-16c0.11-70.691 41.853-131.606 102.017-159.547l1.087-0.453c-61.251-28.394-102.994-89.309-103.104-159.986v-0.014zM304 544h160v-272h-160zM448 0h-128c-8.837 0-16 7.163-16 16v0 224h160v-224c0-8.837-7.163-16-16-16v0zM320 896h128c8.837 0 16-7.163 16-16v0-304h-160v304c0 8.837 7.163 16 16 16v0zM80.896 576h47.104c73.856-0.093 134.696-55.698 143.040-127.327l0.064-0.673h-47.104c-73.856 0.093-134.696 55.698-143.040 127.327l-0.064 0.673zM224 416h47.104c-8.408-72.302-69.248-127.907-143.094-128h-47.114c8.408 72.302 69.248 127.907 143.094 128h0.010zM400 864h32v-256h-32v256zM400 144h32v-112h-32v112zM400 208h32v-32h-32v32zM592 336h32v-32h-32v32zM592 144h32v-112h-32v112zM592 208h32v-32h-32v32z" />
<glyph unicode="&#xe920;" glyph-name="phone-call1" d="M424.024 360.024c-97.739 97.739-119.808 195.478-124.787 234.637-1.391 10.828 2.335 21.686 10.081 29.378l79.095 79.060c11.635 11.628 13.7 29.749 4.979 43.697l-125.934 195.549c-9.648 15.444-29.459 21.018-45.745 12.871l-202.169-95.214c-13.17-6.485-20.916-20.477-19.421-35.081 10.593-100.634 54.466-348.019 297.578-591.148s490.461-286.985 591.148-297.578c14.603-1.495 28.596 6.251 35.081 19.421l95.214 202.169c8.117 16.251 2.58 36.008-12.8 45.674l-195.549 125.899c-13.939 8.73-32.060 6.68-43.697-4.943l-79.060-79.095c-7.692-7.746-18.551-11.472-29.378-10.081-39.159 4.979-136.898 27.048-234.637 124.787zM812.138 412.69c-19.501 0-35.31 15.809-35.31 35.31-0.165 146.192-118.636 264.662-264.828 264.828-19.501 0-35.31 15.809-35.31 35.31s15.809 35.31 35.31 35.31c185.178-0.204 335.244-150.27 335.448-335.448 0-19.501-15.809-35.31-35.31-35.31zM988.69 412.69c-19.501 0-35.31 15.809-35.31 35.31-0.272 243.654-197.725 441.107-441.379 441.379-19.501 0-35.31 15.809-35.31 35.31s15.809 35.31 35.31 35.31c282.641-0.311 511.689-229.359 512-512 0-9.365-3.72-18.346-10.342-24.968s-15.603-10.342-24.968-10.342z" />
<glyph unicode="&#xe921;" glyph-name="minus" d="M0 512.001h1024v-128.001h-1024v128.001z" />
<glyph unicode="&#xe922;" glyph-name="plus-1" d="M512-64c-27.614 0-50 22.386-50 50v0 924c0 27.614 22.386 50 50 50s50-22.386 50-50v0-924c0-27.614-22.386-50-50-50v0zM974 398h-924c-27.614 0-50 22.386-50 50s22.386 50 50 50v0h924c27.614 0 50-22.386 50-50s-22.386-50-50-50v0z" />
<glyph unicode="&#xe923;" glyph-name="clock" d="M512 917.333c-259.206 0-469.333-210.128-469.333-469.333s210.128-469.333 469.333-469.333c259.206 0 469.333 210.128 469.333 469.333v0c-0.315 259.079-210.255 469.018-469.303 469.333h-0.030zM512 64c-212.077 0-384 171.923-384 384s171.923 384 384 384c212.077 0 384-171.923 384-384v0c-0.267-211.97-172.030-383.733-383.974-384h-0.026zM554.667 465.664v238.336c0 23.564-19.103 42.667-42.667 42.667s-42.667-19.103-42.667-42.667v0-256c0.003-11.781 4.78-22.446 12.501-30.165l128-128c7.665-7.41 18.12-11.977 29.641-11.977 23.564 0 42.667 19.103 42.667 42.667 0 11.521-4.567 21.976-11.989 29.653l0.012-0.012z" />
<glyph unicode="&#xe924;" glyph-name="phone-call" d="M985.114 158.88l-200.646 200.644c-23.952 23.95-62.916 23.95-86.87 0l-52.176-52.176c-16.348-16.348-21.516-39.69-15.546-60.482l-19.686-19.686c-0.006-0.006-0.010-0.010-0.016-0.016-13.98-13.996-101.046 7.482-206.29 112.726-105.228 105.226-126.712 192.278-112.732 206.284 0 0.004 0.004 0.004 0.004 0.004l19.704 19.702c5.562-1.598 11.302-2.414 17.046-2.414 15.73 0 31.458 5.986 43.436 17.96l52.176 52.176c23.95 23.95 23.95 62.916 0 86.868l-200.646 200.648c-11.6 11.6-27.026 17.988-43.432 17.988-16.41 0-31.83-6.392-43.432-17.988l-52.18-52.18c-16.348-16.348-21.516-39.692-15.546-60.482 0 0-16.688-16.848-17.518-17.912-55.506-61.698-65.92-158.836-29.122-274.974 36.034-113.714 113.714-234.176 218.734-339.19 105.016-105.016 225.478-182.696 339.192-218.734 45.68-14.474 88.414-21.646 127.22-21.646 63.626 0 116.674 19.296 154.7 57.32l10.948 10.948c5.48-1.576 11.204-2.426 17.064-2.426 16.41 0 31.834 6.392 43.432 17.988l52.18 52.18c23.95 23.95 23.95 62.918 0.002 86.87zM179.44 877.686l200.648-200.65-52.148-52.204c0 0-0.010 0.010-0.028 0.028l-200.65 200.646 52.178 52.18zM818.058 36.754c-0.004-0.004-0.006-0.006-0.010-0.010-44.188-44.182-122.292-51.48-219.922-20.54-104.504 33.116-216.13 105.428-314.312 203.612-98.186 98.184-170.498 209.806-203.612 314.312-30.94 97.634-23.642 175.74 20.55 219.934l5.544 5.544 155.714-155.712-14.282-14.282c-0.010-0.010-0.018-0.022-0.030-0.034-59.17-59.244 11.926-192.294 112.756-293.124 75.468-75.468 168.986-134.28 236.102-134.28 22.568 0 42.152 6.65 57.056 21.556 0.006 0.006 0.010 0.010 0.016 0.016l14.266 14.266 155.714-155.712-5.55-5.546zM889.504 63.264l-200.648 200.648 52.176 52.176 200.648-200.644c0 0-52.158-52.198-52.176-52.18zM777.636 713.632c-58.418 58.418-136.084 90.588-218.688 90.586-16.962 0-30.712-13.75-30.712-30.712s13.752-30.712 30.712-30.712c66.2 0.004 128.438-25.78 175.256-72.594 46.812-46.812 72.59-109.050 72.588-175.248 0-16.962 13.75-30.716 30.712-30.716 16.96 0 30.712 13.75 30.712 30.708 0.002 82.608-32.17 160.27-90.58 218.688zM887.79 823.786c-87.846 87.842-204.634 136.218-328.854 136.214-16.962 0-30.712-13.752-30.712-30.712 0-16.962 13.752-30.712 30.712-30.712 107.814 0.004 209.176-41.984 285.418-118.222 76.236-76.236 118.222-177.598 118.22-285.412 0-16.962 13.75-30.712 30.712-30.712 16.96 0 30.712 13.75 30.712 30.708 0.004 124.224-48.372 241.008-136.208 328.848zM667.474 603.48c-29.412 29.412-66.93 44.954-108.512 44.954 0 0-0.010 0-0.012 0-16.962-0.004-30.712-13.752-30.708-30.716 0.004-16.962 13.756-30.712 30.716-30.708 0.004 0 0.006 0 0.010 0 25.288 0 47.186-9.072 65.078-26.962 17.638-17.64 26.962-40.15 26.958-65.088-0.004-16.962 13.75-30.712 30.708-30.716h0.004c16.962 0 30.708 13.75 30.712 30.708 0.002 41.584-15.54 79.112-44.954 108.528z" />
</font>
</defs>
</svg>
